<?xml version="1.0" encoding="UTF-8" standalone="no"?>
<!-- Created with Inkscape (http://www.inkscape.org/) -->

<svg
   xmlns:dc="http://purl.org/dc/elements/1.1/"
   xmlns:cc="http://creativecommons.org/ns#"
   xmlns:rdf="http://www.w3.org/1999/02/22-rdf-syntax-ns#"
   xmlns:svg="http://www.w3.org/2000/svg"
   xmlns="http://www.w3.org/2000/svg"
   xmlns:sodipodi="http://sodipodi.sourceforge.net/DTD/sodipodi-0.dtd"
   xmlns:inkscape="http://www.inkscape.org/namespaces/inkscape"
   width="744.09448"
   height="183"
   id="svg5211"
   version="1.1"
   inkscape:version="0.48+devel "
   onload="var src; if (document.documentURI) src = document.documentURI; else if (this.getSrc) src = this.getSrc(); else src = document.location.href + ''; try {parent.preload.load(src);}catch(e) {}"
   viewBox="0 0 744.09448 183"
   sodipodi:docname="graphView.svg">
  <defs
     id="defs5213" />
  <sodipodi:namedview
     id="base"
     pagecolor="#ffffff"
     bordercolor="#666666"
     borderopacity="1.0"
     inkscape:pageopacity="0.0"
     inkscape:pageshadow="2"
     inkscape:zoom="1.4"
     inkscape:cx="328.17045"
     inkscape:cy="65.274403"
     inkscape:document-units="px"
     inkscape:current-layer="layer1"
     showgrid="false"
     inkscape:showpageshadow="false"
     inkscape:window-width="1920"
     inkscape:window-height="1017"
     inkscape:window-x="-8"
     inkscape:window-y="-8"
     inkscape:window-maximized="1" />
  <metadata
     id="metadata5216">
    <rdf:RDF>
      <cc:Work
         rdf:about="">
        <dc:format>image/svg+xml</dc:format>
        <dc:type
           rdf:resource="http://purl.org/dc/dcmitype/StillImage" />
        <dc:title />
      </cc:Work>
    </rdf:RDF>
  </metadata>
  <g
     inkscape:label="Layer 1"
     inkscape:groupmode="layer"
     id="layer1"
     transform="translate(0,-869.3622)">
    <rect
       x="3.99999"
       y="929.26221"
       class="st0"
       width="734.70001"
       height="17.6"
       id="rect17"
       style="fill:#28333b" />
    <g
       id="g19"
       transform="translate(-173.00001,792.1622)">
      <g
         id="g21">
        <rect
           x="809.5"
           y="130"
           class="st6"
           width="4.4000001"
           height="31.700001"
           id="rect23"
           style="fill:#222b2f" />
        <rect
           x="806.29999"
           y="128"
           class="st7"
           width="4.4000001"
           height="35.799999"
           id="rect25"
           style="fill:#1a3c52" />
        <rect
           x="812.70001"
           y="128"
           class="st7"
           width="4.4000001"
           height="35.799999"
           id="rect27"
           style="fill:#1a3c52" />
        <rect
           x="803.59998"
           y="131.39999"
           class="st6"
           width="2.8"
           height="2.8"
           id="rect29"
           style="fill:#222b2f" />
        <rect
           x="817.09998"
           y="131.39999"
           class="st6"
           width="2.8"
           height="2.8"
           id="rect31"
           style="fill:#222b2f" />
        <rect
           x="803.59998"
           y="157.60001"
           class="st6"
           width="2.8"
           height="2.8"
           id="rect33"
           style="fill:#222b2f" />
        <rect
           x="817.09998"
           y="157.60001"
           class="st6"
           width="2.8"
           height="2.8"
           id="rect35"
           style="fill:#222b2f" />
      </g>
      <g
         id="g37">
        <rect
           x="888.20001"
           y="130"
           class="st6"
           width="4.4000001"
           height="31.700001"
           id="rect39"
           style="fill:#222b2f" />
        <rect
           x="885"
           y="128"
           class="st7"
           width="4.4000001"
           height="35.799999"
           id="rect41"
           style="fill:#1a3c52" />
        <rect
           x="891.40002"
           y="128"
           class="st7"
           width="4.4000001"
           height="35.799999"
           id="rect43"
           style="fill:#1a3c52" />
        <rect
           x="882.29999"
           y="131.39999"
           class="st6"
           width="2.8"
           height="2.8"
           id="rect45"
           style="fill:#222b2f" />
        <rect
           x="895.79999"
           y="131.39999"
           class="st6"
           width="2.8"
           height="2.8"
           id="rect47"
           style="fill:#222b2f" />
        <rect
           x="882.29999"
           y="157.60001"
           class="st6"
           width="2.8"
           height="2.8"
           id="rect49"
           style="fill:#222b2f" />
        <rect
           x="895.79999"
           y="157.60001"
           class="st6"
           width="2.8"
           height="2.8"
           id="rect51"
           style="fill:#222b2f" />
      </g>
      <g
         id="g53">
        <circle
           class="st7"
           cx="850.40002"
           cy="145.89999"
           r="16.9"
           id="circle55"
           style="fill:#1a3c52"
           d="m 867.30002,145.89999 a 16.9,16.9 0 0 1 -16.9,16.9 16.9,16.9 0 0 1 -16.9,-16.9 16.9,16.9 0 0 1 16.9,-16.9 16.9,16.9 0 0 1 16.9,16.9 z" />
        <g
           id="g57">
          <g
             id="g59">
            <circle
               class="st6"
               cx="850.40002"
               cy="132.8"
               r="2"
               id="circle61"
               style="fill:#222b2f"
               d="m 852.40002,132.8 a 2,2 0 0 1 -2,2 2,2 0 0 1 -2,-2 2,2 0 0 1 2,-2 2,2 0 0 1 2,2 z" />
            <circle
               class="st6"
               cx="840.29999"
               cy="137.10001"
               r="2"
               id="circle63"
               style="fill:#222b2f"
               d="m 842.29999,137.10001 a 2,2 0 0 1 -2,2 2,2 0 0 1 -2,-2 2,2 0 0 1 2,-2 2,2 0 0 1 2,2 z" />
            <circle
               class="st6"
               cx="837.79999"
               cy="147.8"
               r="2"
               id="circle65"
               style="fill:#222b2f"
               d="m 839.79999,147.8 a 2,2 0 0 1 -2,2 2,2 0 0 1 -2,-2 2,2 0 0 1 2,-2 2,2 0 0 1 2,2 z" />
            <circle
               class="st6"
               cx="844.29999"
               cy="157.60001"
               r="2"
               id="circle67"
               style="fill:#222b2f"
               d="m 846.29999,157.60001 a 2,2 0 0 1 -2,2 2,2 0 0 1 -2,-2 2,2 0 0 1 2,-2 2,2 0 0 1 2,2 z" />
            <circle
               class="st6"
               cx="857.40002"
               cy="156.60001"
               r="2"
               id="circle69"
               style="fill:#222b2f"
               d="m 859.40002,156.60001 a 2,2 0 0 1 -2,2 2,2 0 0 1 -2,-2 2,2 0 0 1 2,-2 2,2 0 0 1 2,2 z" />
            <circle
               transform="matrix(0.9389,-0.3442,0.3442,0.9389,1.8827,306.3026)"
               class="st6"
               cx="863.70001"
               cy="147.8"
               id="ellipse71"
               r="2"
               style="fill:#222b2f"
               d="m 865.70001,147.8 a 2,2 0 0 1 -2,2 2,2 0 0 1 -2,-2 2,2 0 0 1 2,-2 2,2 0 0 1 2,2 z" />
            <circle
               transform="matrix(0.9389,-0.3442,0.3442,0.9389,4.7632,304.958)"
               class="st6"
               cx="861.29999"
               cy="139.10001"
               id="ellipse73"
               r="2"
               style="fill:#222b2f"
               d="m 863.29999,139.10001 a 2,2 0 0 1 -2,2 2,2 0 0 1 -2,-2 2,2 0 0 1 2,-2 2,2 0 0 1 2,2 z" />
          </g>
          <g
             id="g75">
            <path
               class="st2"
               d="m 855.7,117.3 c -15.8,-2.9 -31,7.5 -33.9,23.3 -2.9,15.8 7.5,31 23.3,33.9 15.8,2.9 31,-7.5 33.9,-23.3 2.9,-15.8 -7.5,-31 -23.3,-33.9 z M 827,141.6 c 2.2,-12 13,-20.2 24.8,-19.4 l -2.7,14.7 c -4.4,0.6 -7.8,4.4 -7.8,9 0,0.2 0,0.4 0,0.6 l -13.9,5.7 c -0.8,-3.3 -1,-7 -0.4,-10.6 z m 19.1,27.7 C 838.9,168 833,163.5 829.7,157.5 l 13.8,-5.7 c 1.7,1.9 4.1,3.2 6.9,3.2 1.6,0 3.1,-0.4 4.3,-1.1 l 10.9,10.2 c -5.2,4.4 -12.2,6.5 -19.5,5.2 z m 27.7,-19.1 c -0.7,3.7 -2.1,7 -4.2,9.8 l -10.9,-10.2 c 0.5,-1.2 0.9,-2.5 0.9,-3.8 0,-3.4 -1.9,-6.4 -4.7,-8 l 2.7,-14.7 c 11.2,3.4 18.4,14.9 16.2,26.9 z"
               id="path77"
               inkscape:connector-curvature="0"
               style="fill:#ed644f" />
            <circle
               class="st8"
               cx="850.40002"
               cy="145.89999"
               r="5.0999999"
               id="circle79"
               style="fill:#ce503b"
               d="m 855.50002,145.89999 a 5.0999999,5.0999999 0 0 1 -5.1,5.1 5.0999999,5.0999999 0 0 1 -5.1,-5.1 5.0999999,5.0999999 0 0 1 5.1,-5.1 5.0999999,5.0999999 0 0 1 5.1,5.1 z" />
          </g>
        </g>
      </g>
    </g>
    <g
       id="g81"
       transform="translate(-173.00001,792.1622)">
      <g
         id="g83">
        <rect
           x="200.8"
           y="130"
           class="st6"
           width="4.4000001"
           height="31.700001"
           id="rect85"
           style="fill:#222b2f" />
        <rect
           x="197.7"
           y="128"
           class="st7"
           width="4.4000001"
           height="35.799999"
           id="rect87"
           style="fill:#1a3c52" />
        <rect
           x="204"
           y="128"
           class="st7"
           width="4.4000001"
           height="35.799999"
           id="rect89"
           style="fill:#1a3c52" />
        <rect
           x="194.89999"
           y="131.39999"
           class="st6"
           width="2.8"
           height="2.8"
           id="rect91"
           style="fill:#222b2f" />
        <rect
           x="208.39999"
           y="131.39999"
           class="st6"
           width="2.8"
           height="2.8"
           id="rect93"
           style="fill:#222b2f" />
        <rect
           x="194.89999"
           y="157.60001"
           class="st6"
           width="2.8"
           height="2.8"
           id="rect95"
           style="fill:#222b2f" />
        <rect
           x="208.39999"
           y="157.60001"
           class="st6"
           width="2.8"
           height="2.8"
           id="rect97"
           style="fill:#222b2f" />
      </g>
      <g
         id="g99">
        <rect
           x="279.5"
           y="130"
           class="st6"
           width="4.4000001"
           height="31.700001"
           id="rect101"
           style="fill:#222b2f" />
        <rect
           x="276.29999"
           y="128"
           class="st7"
           width="4.4000001"
           height="35.799999"
           id="rect103"
           style="fill:#1a3c52" />
        <rect
           x="282.70001"
           y="128"
           class="st7"
           width="4.4000001"
           height="35.799999"
           id="rect105"
           style="fill:#1a3c52" />
        <rect
           x="273.60001"
           y="131.39999"
           class="st6"
           width="2.8"
           height="2.8"
           id="rect107"
           style="fill:#222b2f" />
        <rect
           x="287.10001"
           y="131.39999"
           class="st6"
           width="2.8"
           height="2.8"
           id="rect109"
           style="fill:#222b2f" />
        <rect
           x="273.60001"
           y="157.60001"
           class="st6"
           width="2.8"
           height="2.8"
           id="rect111"
           style="fill:#222b2f" />
        <rect
           x="287.10001"
           y="157.60001"
           class="st6"
           width="2.8"
           height="2.8"
           id="rect113"
           style="fill:#222b2f" />
      </g>
      <g
         id="g115">
        <circle
           class="st7"
           cx="241.7"
           cy="145.89999"
           r="16.9"
           id="circle117"
           style="fill:#1a3c52"
           d="m 258.6,145.89999 a 16.9,16.9 0 0 1 -16.9,16.9 16.9,16.9 0 0 1 -16.9,-16.9 16.9,16.9 0 0 1 16.9,-16.9 16.9,16.9 0 0 1 16.9,16.9 z" />
        <g
           id="g119">
          <g
             id="g121">
            <circle
               class="st6"
               cx="241.7"
               cy="132.8"
               r="2"
               id="circle123"
               style="fill:#222b2f"
               d="m 243.7,132.8 a 2,2 0 0 1 -2,2 2,2 0 0 1 -2,-2 2,2 0 0 1 2,-2 2,2 0 0 1 2,2 z" />
            <circle
               class="st6"
               cx="231.60001"
               cy="137.10001"
               r="2"
               id="circle125"
               style="fill:#222b2f"
               d="m 233.60001,137.10001 a 2,2 0 0 1 -2,2 2,2 0 0 1 -2,-2 2,2 0 0 1 2,-2 2,2 0 0 1 2,2 z" />
            <circle
               class="st6"
               cx="229.10001"
               cy="147.8"
               r="2"
               id="circle127"
               style="fill:#222b2f"
               d="m 231.10001,147.8 a 2,2 0 0 1 -2,2 2,2 0 0 1 -2,-2 2,2 0 0 1 2,-2 2,2 0 0 1 2,2 z" />
            <circle
               class="st6"
               cx="235.60001"
               cy="157.60001"
               r="2"
               id="circle129"
               style="fill:#222b2f"
               d="m 237.60001,157.60001 a 2,2 0 0 1 -2,2 2,2 0 0 1 -2,-2 2,2 0 0 1 2,-2 2,2 0 0 1 2,2 z" />
            <circle
               class="st6"
               cx="248.8"
               cy="156.60001"
               r="2"
               id="circle131"
               style="fill:#222b2f"
               d="m 250.8,156.60001 a 2,2 0 0 1 -2,2 2,2 0 0 1 -2,-2 2,2 0 0 1 2,-2 2,2 0 0 1 2,2 z" />
            <circle
               transform="matrix(0.9389,-0.3442,0.3442,0.9389,-35.3076,96.7999)"
               class="st6"
               cx="255"
               cy="147.8"
               id="ellipse133"
               r="2"
               style="fill:#222b2f"
               d="m 257,147.8 a 2,2 0 0 1 -2,2 2,2 0 0 1 -2,-2 2,2 0 0 1 2,-2 2,2 0 0 1 2,2 z" />
            <circle
               transform="matrix(0.9389,-0.3442,0.3442,0.9389,-32.4271,95.4553)"
               class="st6"
               cx="252.60001"
               cy="139.10001"
               id="ellipse135"
               r="2"
               style="fill:#222b2f"
               d="m 254.60001,139.10001 a 2,2 0 0 1 -2,2 2,2 0 0 1 -2,-2 2,2 0 0 1 2,-2 2,2 0 0 1 2,2 z" />
          </g>
          <g
             id="g137">
            <path
               class="st2"
               d="m 247,117.3 c -15.8,-2.9 -31,7.5 -33.9,23.3 -2.9,15.8 7.5,31 23.3,33.9 15.8,2.9 31,-7.5 33.9,-23.3 2.9,-15.8 -7.5,-31 -23.3,-33.9 z m -28.6,24.3 c 2.2,-12 13,-20.2 24.8,-19.4 l -2.7,14.7 c -4.4,0.6 -7.8,4.4 -7.8,9 0,0.2 0,0.4 0,0.6 l -13.9,5.7 c -0.9,-3.3 -1.1,-7 -0.4,-10.6 z m 19,27.7 C 230.2,168 224.3,163.5 221,157.5 l 13.8,-5.7 c 1.7,1.9 4.1,3.2 6.9,3.2 1.6,0 3.1,-0.4 4.3,-1.1 l 10.9,10.2 c -5.2,4.4 -12.2,6.5 -19.5,5.2 z m 27.7,-19.1 c -0.7,3.7 -2.1,7 -4.2,9.8 L 250,149.7 c 0.5,-1.2 0.9,-2.5 0.9,-3.8 0,-3.4 -1.9,-6.4 -4.7,-8 l 2.7,-14.7 c 11.2,3.5 18.4,15 16.2,27 z"
               id="path139"
               inkscape:connector-curvature="0"
               style="fill:#ed644f" />
            <circle
               class="st8"
               cx="241.7"
               cy="145.89999"
               r="5.0999999"
               id="circle141"
               style="fill:#ce503b"
               d="m 246.8,145.89999 a 5.0999999,5.0999999 0 0 1 -5.1,5.1 5.0999999,5.0999999 0 0 1 -5.1,-5.1 5.0999999,5.0999999 0 0 1 5.1,-5.1 5.0999999,5.0999999 0 0 1 5.1,5.1 z" />
          </g>
        </g>
      </g>
    </g>
    <g
       id="g143"
       transform="translate(-173.00001,792.1622)">
      <path
         class="st3"
         d="m 698.9,122.1 c -13.1,0 -23.8,10.6 -23.8,23.8 0,13.1 10.6,23.8 23.8,23.8 13.1,0 23.8,-10.6 23.8,-23.8 0,-13.1 -10.7,-23.8 -23.8,-23.8 z"
         id="path145"
         inkscape:connector-curvature="0"
         style="fill:#ffffff" />
      <path
         class="st2"
         d="m 713.1,140 -14.2,5.9 14.1,6.3 c 0,0 1.7,-2.8 1.4,-6.3 -0.5,-3.5 -1.3,-5.9 -1.3,-5.9 z"
         id="path147"
         inkscape:connector-curvature="0"
         style="fill:#ed644f" />
      <path
         class="st2"
         d="m 698.9,116.8 c -16.1,0 -29.1,13 -29.1,29.1 0,16.1 13,29.1 29.1,29.1 16.1,0 29.1,-13 29.1,-29.1 0,-16.1 -13,-29.1 -29.1,-29.1 z m 0,51.9 c -12.6,0 -22.8,-10.2 -22.8,-22.8 0,-12.6 10.2,-22.8 22.8,-22.8 12.6,0 22.8,10.2 22.8,22.8 0,12.6 -10.2,22.8 -22.8,22.8 z"
         id="path149"
         inkscape:connector-curvature="0"
         style="fill:#ed644f" />
      <path
         class="st7"
         d="m 716.2,145.9 c 0,-9.3 -7.3,-16.8 -16.5,-17.2 l 0,0 -0.1,0 c -0.3,0 -0.5,0 -0.8,0 -0.3,0 -0.5,0 -0.8,0 l -0.1,0 0,0 c -9.2,0.4 -16.5,8 -16.5,17.2 0,2.7 0.6,5.2 1.7,7.5 l 0.6,1.3 5.3,-2.4 -0.7,-1.5 -3.6,1.7 c -0.9,-1.9 -1.4,-4.2 -1.4,-6.5 0,-2.1 0.4,-4.2 1.2,-6 l 3.7,1.7 0.8,-1.6 -3.7,-1.7 c 2.5,-4.4 7.2,-7.5 12.6,-7.7 l 0,3.7 1.6,0 0,-3.7 c 5.5,0.3 10.2,3.4 12.7,8 l -3.7,1.7 0.7,1.5 3.7,-1.7 c 0.8,1.8 1.2,3.8 1.2,5.9 0,2.2 -0.5,4.4 -1.4,6.3 l -3.6,-1.7 -0.7,1.5 5.3,2.4 0.5,-1 c 1.3,-2.5 2,-5 2,-7.7 z"
         id="path151"
         inkscape:connector-curvature="0"
         style="fill:#1a3c52" />
      <path
         class="st7"
         d="m 700.7,153.8 -1.6,-15.3 c 0,-0.3 -0.5,-0.3 -0.5,0 l -1.6,15.3 c -1.2,0.6 -2,1.9 -2,3.4 0,2.1 1.7,3.8 3.8,3.8 2.1,0 3.8,-1.7 3.8,-3.8 0.1,-1.5 -0.7,-2.7 -1.9,-3.4 z"
         id="path153"
         inkscape:connector-curvature="0"
         style="fill:#1a3c52" />
    </g>
    <g
       id="g155"
       transform="translate(-173.00001,792.1622)">
      <g
         id="g157">
        <rect
           x="497.70001"
           y="122.1"
           class="st6"
           width="89.400002"
           height="47.5"
           id="rect159"
           style="fill:#222b2f" />
        <rect
           x="494.39999"
           y="120.1"
           class="st7"
           width="11"
           height="51.700001"
           id="rect161"
           style="fill:#1a3c52" />
        <rect
           x="489.79999"
           y="127.7"
           class="st6"
           width="4.5999999"
           height="4.5"
           id="rect163"
           style="fill:#222b2f" />
        <rect
           x="489.79999"
           y="160.10001"
           class="st6"
           width="4.5999999"
           height="4.5"
           id="rect165"
           style="fill:#222b2f" />
        <rect
           x="579.09998"
           y="120.1"
           transform="matrix(-1,0,0,-1,1169.1495,291.7667)"
           class="st7"
           width="11"
           height="51.700001"
           id="rect167"
           style="fill:#1a3c52" />
        <rect
           x="590.09998"
           y="159.60001"
           transform="matrix(-1,0,0,-1,1184.7629,323.639)"
           class="st6"
           width="4.5999999"
           height="4.5"
           id="rect169"
           style="fill:#222b2f" />
        <rect
           x="590.09998"
           y="127.2"
           transform="matrix(-1,0,0,-1,1184.7629,258.8354)"
           class="st6"
           width="4.5999999"
           height="4.5"
           id="rect171"
           style="fill:#222b2f" />
      </g>
      <path
         class="st7"
         d="m 564.7,174.5 -45,0 c -2.8,0 -5,-2.2 -5,-5 l 0,-48 c 0,-2.8 2.2,-5 5,-5 l 45,0 c 2.8,0 5,2.2 5,5 l 0,48 c 0,2.7 -2.2,5 -5,5 z"
         id="path173"
         inkscape:connector-curvature="0"
         style="fill:#1a3c52" />
      <path
         class="st2"
         d="m 543,165.3 c 10.9,-0.1 19.7,-9.1 19.6,-20 -0.1,-10.9 -9.1,-19.7 -20,-19.6 -10.9,0.1 -19.7,9.1 -19.6,20 0.1,10.9 9.1,19.7 20,19.6 z m -0.4,-36 c 5,-0.1 9.5,2.2 12.5,5.7 l -8.5,5.6 c -1.4,-1.1 -3.2,-1.6 -5,-1.2 -1.1,0.2 -2,0.7 -2.8,1.3 l -8.6,-5.4 c 3,-3.6 7.4,-6 12.4,-6 z"
         id="path175"
         inkscape:connector-curvature="0"
         style="fill:#ed644f" />
      <circle
         class="st6"
         cx="521.79999"
         cy="123"
         r="2.9000001"
         id="circle177"
         style="fill:#222b2f"
         d="m 524.69999,123 a 2.9000001,2.9000001 0 0 1 -2.9,2.9 2.9000001,2.9000001 0 0 1 -2.9,-2.9 2.9000001,2.9000001 0 0 1 2.9,-2.9 2.9000001,2.9000001 0 0 1 2.9,2.9 z" />
      <circle
         class="st6"
         cx="562.29999"
         cy="123"
         r="2.9000001"
         id="circle179"
         style="fill:#222b2f"
         d="m 565.19999,123 a 2.9000001,2.9000001 0 0 1 -2.9,2.9 2.9000001,2.9000001 0 0 1 -2.9,-2.9 2.9000001,2.9000001 0 0 1 2.9,-2.9 2.9000001,2.9000001 0 0 1 2.9,2.9 z" />
      <circle
         class="st6"
         cx="521.79999"
         cy="168"
         r="2.9000001"
         id="circle181"
         style="fill:#222b2f"
         d="m 524.69999,168 a 2.9000001,2.9000001 0 0 1 -2.9,2.9 2.9000001,2.9000001 0 0 1 -2.9,-2.9 2.9000001,2.9000001 0 0 1 2.9,-2.9 2.9000001,2.9000001 0 0 1 2.9,2.9 z" />
      <circle
         class="st6"
         cx="562.29999"
         cy="168"
         r="2.9000001"
         id="circle183"
         style="fill:#222b2f"
         d="m 565.19999,168 a 2.9000001,2.9000001 0 0 1 -2.9,2.9 2.9000001,2.9000001 0 0 1 -2.9,-2.9 2.9000001,2.9000001 0 0 1 2.9,-2.9 2.9000001,2.9000001 0 0 1 2.9,2.9 z" />
    </g>
    <path
       style="fill:#4b606b"
       inkscape:connector-curvature="0"
       id="path187"
       d="m 575.99999,1006.9622 -100.2,0 c -2.8,0 -5,-2.2 -5,-5 l 0,-19.7 c 0,-2.8 2.2,-5 5,-5 l 100.2,0 c 2.8,0 5,2.2 5,5 l 0,19.7 c 0,2.7 -2.2,5 -5,5 z"
       class="st9" />
    <rect
       x="470.79999"
       y="984.16217"
       class="st10"
       width="110.2"
       height="22.799999"
       id="rect191"
       style="fill:none" />
    <text
       class="st3 st11 st12"
       id="text_LINE_TEMPERATURE"
       style="font-size:18px;font-style:normal;font-variant:normal;font-weight:bold;font-stretch:normal;text-align:center;line-height:125%;writing-mode:lr-tb;text-anchor:middle;fill:#ffffff;font-family:Open Sans;-inkscape-font-specification:'Open Sans, Bold'"
       x="526.81158"
       y="997.8515"
       sodipodi:linespacing="125%">- °C</text>
    <g
       id="g197"
       transform="translate(-173.00001,792.1622)">
      <path
         style="fill:#ffffff"
         inkscape:connector-curvature="0"
         id="path199"
         d="m 386.3,122.1 c -13.1,0 -23.8,10.6 -23.8,23.8 0,13.1 10.6,23.8 23.8,23.8 13.2,0 23.8,-10.6 23.8,-23.8 0,-13.1 -10.6,-23.8 -23.8,-23.8 z"
         class="st3" />
      <path
         style="fill:#ed644f"
         inkscape:connector-curvature="0"
         id="path201"
         d="m 400.6,140 -14.2,5.9 14.1,6.3 c 0,0 1.7,-2.8 1.4,-6.3 -0.5,-3.5 -1.3,-5.9 -1.3,-5.9 z"
         class="st2" />
      <path
         style="fill:#ed644f"
         inkscape:connector-curvature="0"
         id="path203"
         d="m 386.3,116.8 c -16.1,0 -29.1,13 -29.1,29.1 0,16.1 13,29.1 29.1,29.1 16.1,0 29.1,-13 29.1,-29.1 0,-16.1 -13,-29.1 -29.1,-29.1 z m 0,51.9 c -12.6,0 -22.8,-10.2 -22.8,-22.8 0,-12.6 10.2,-22.8 22.8,-22.8 12.6,0 22.8,10.2 22.8,22.8 0,12.6 -10.2,22.8 -22.8,22.8 z"
         class="st2" />
      <path
         style="fill:#1a3c52"
         inkscape:connector-curvature="0"
         id="path205"
         d="m 403.6,145.9 c 0,-9.3 -7.3,-16.8 -16.5,-17.2 l 0,0 -0.1,0 c -0.3,0 -0.5,0 -0.8,0 -0.3,0 -0.5,0 -0.8,0 l -0.1,0 0,0 c -9.2,0.4 -16.5,8 -16.5,17.2 0,2.7 0.6,5.2 1.7,7.5 l 0.6,1.3 5.3,-2.4 -0.7,-1.5 -3.6,1.7 c -0.9,-1.9 -1.4,-4.2 -1.4,-6.5 0,-2.1 0.4,-4.2 1.2,-6 l 3.7,1.7 0.8,-1.6 -3.7,-1.7 c 2.5,-4.4 7.2,-7.5 12.6,-7.7 l 0,3.7 1.6,0 0,-3.7 c 5.5,0.3 10.2,3.4 12.7,8 l -3.7,1.7 0.7,1.5 3.7,-1.7 c 0.8,1.8 1.2,3.8 1.2,5.9 0,2.2 -0.5,4.4 -1.4,6.3 l -3.6,-1.7 -0.7,1.5 5.3,2.4 0.5,-1 c 1.4,-2.5 2,-5 2,-7.7 z"
         class="st7" />
      <path
         style="fill:#1a3c52"
         inkscape:connector-curvature="0"
         id="path207"
         d="m 388.2,153.8 -1.6,-15.3 c 0,-0.3 -0.5,-0.3 -0.5,0 l -1.6,15.3 c -1.2,0.6 -2,1.9 -2,3.4 0,2.1 1.7,3.8 3.8,3.8 2.1,0 3.8,-1.7 3.8,-3.8 0.1,-1.5 -0.8,-2.7 -1.9,-3.4 z"
         class="st7" />
    </g>
    <path
       style="fill:#4b606b"
       inkscape:connector-curvature="0"
       id="path209"
       d="m 263.39999,1006.9622 -100.2,0 c -2.8,0 -5,-2.2 -5,-5 l 0,-19.7 c 0,-2.8 2.2,-5 5,-5 l 100.2,0 c 2.8,0 5,2.2 5,5 l 0,19.7 c 0,2.7 -2.2,5 -5,5 z"
       class="st9" />
    <rect
       x="158.2"
       y="984.16217"
       class="st10"
       width="110.2"
       height="22.799999"
       id="rect213"
       style="fill:none" />
    <text
       class="st3 st11 st12"
       id="text_LINE_PRESSURE"
       style="font-size:18px;font-style:normal;font-variant:normal;font-weight:bold;font-stretch:normal;text-align:center;line-height:125%;writing-mode:lr-tb;text-anchor:middle;fill:#ffffff;font-family:Open Sans;-inkscape-font-specification:'Open Sans, Bold'"
       x="214.26729"
       y="997.8515"
       sodipodi:linespacing="125%">- Bar</text>
    <polygon
       style="fill:#ed644f"
       id="polygon217"
       points="394.9,97.9 424.3,97.9 424.3,77.2 348.3,77.2 348.3,97.9 377.7,97.9 377.7,98 386.3,106.7 395,98 "
       class="st2"
       transform="translate(-173.00001,792.1622)" />
    <g
       id="g219"
       transform="translate(-177.00001,792.1622)">
      <text
         style="font-size:13px;fill:#ffffff;font-family:OpenSans-Bold"
         id="text221"
         class="st3 st11 st13"
         transform="translate(354.3168,92.3283)">PRESSURE</text>
    </g>
    <polygon
       style="fill:#ed644f"
       id="polygon225"
       points="552,97.9 585.7,97.9 585.7,77.2 498.8,77.2 498.8,97.9 534.8,97.9 534.7,98 543.4,106.7 552,98 "
       class="st2"
       transform="translate(-173.00001,792.1622)" />
    <g
       id="g227"
       transform="translate(-175.00001,792.1622)">
      <text
         style="font-size:13px;fill:#ffffff;font-family:OpenSans-Bold"
         id="text229"
         class="st3 st11 st13"
         transform="translate(505.8564,92.3283)">FLOW RATE</text>
    </g>
    <polygon
       style="fill:#ed644f"
       id="polygon233"
       points="708.9,97.9 747.9,97.9 747.9,77.2 649.9,77.2 649.9,97.9 691.7,97.9 691.7,98 700.3,106.7 709,98 "
       class="st2"
       transform="translate(-173.00001,792.1622)" />
    <g
       id="g235"
       transform="translate(-175.00001,792.1622)">
      <text
         style="font-size:13px;fill:#ffffff;font-family:OpenSans-Bold"
         id="text237"
         class="st3 st11 st13"
         transform="translate(656.3789,92.3283)">TEMPRATURE</text>
    </g>
    <g
       id="g239"
       transform="translate(-173.00001,792.1622)">
      <path
         class="st9"
         d="m 610.9,260.2 -137.3,0 c -2.8,0 -5,-2.2 -5,-5 l 0,-64.7 c 0,-2.8 2.2,-5 5,-5 l 137.3,0 c 2.8,0 5,2.2 5,5 l 0,64.7 c 0,2.8 -2.2,5 -5,5 z"
         id="path241"
         inkscape:connector-curvature="0"
         style="fill:#4b606b" />
    </g>
    <rect
       x="305"
       y="1006.9622"
       class="st10"
       width="128.39999"
       height="14.4"
       id="rect247"
       style="fill:none" />
    <text
       class="st3 st11 st12"
       id="text_CORRECTED_FLOW_RATE"
       style="font-size:18px;font-style:normal;font-variant:normal;font-weight:bold;font-stretch:normal;text-align:center;line-height:125%;writing-mode:lr-tb;text-anchor:middle;fill:#ffffff;font-family:Open Sans;-inkscape-font-specification:'Open Sans, Bold'"
       x="370.32474"
       y="1022.0383"
       sodipodi:linespacing="125%">- sm</text>
    <rect
       x="295.60001"
       y="1029.6622"
       class="st10"
       width="147.3"
       height="14.3"
       id="rect259"
       style="fill:none" />
    <text
       class="st3 st11 st12"
       id="text_ENERGY_FLOW_RATE"
       style="font-size:18px;font-style:normal;font-variant:normal;font-weight:bold;font-stretch:normal;text-align:center;line-height:125%;writing-mode:lr-tb;text-anchor:middle;fill:#ffffff;font-family:Open Sans;-inkscape-font-specification:'Open Sans, Bold'"
       x="370.32474"
       y="1044.7616"
       sodipodi:linespacing="125%">- mcal/h</text>
    <rect
       x="314.10001"
       y="984.16217"
       class="st10"
       width="110.2"
       height="14.5"
       id="rect267"
       style="fill:none" />
    <text
       class="st3 st11 st12"
       id="text_UNCORRECTED_FLOW_RATE"
       style="font-size:18px;font-style:normal;font-variant:normal;font-weight:bold;font-stretch:normal;text-align:center;line-height:125%;writing-mode:lr-tb;text-anchor:middle;fill:#ffffff;font-family:Open Sans;-inkscape-font-specification:'Open Sans, Bold'"
       x="370.32474"
       y="999.28009"
       sodipodi:linespacing="125%">- m</text>
  </g>
</svg>
